<svg width="24.000000" height="24.000000" viewBox="0 0 24 24" fill="none" xmlns="http://www.w3.org/2000/svg" xmlns:xlink="http://www.w3.org/1999/xlink">
	<desc>
			Created with Pixso.
	</desc>
	<defs>
		<clipPath id="clip23_6198">
			<rect id="coin_stake" rx="0.000000" width="23.000000" height="23.000000" transform="translate(0.500000 0.500000)" fill="white" fill-opacity="0"/>
		</clipPath>
	</defs>
	<rect id="coin_stake" rx="0.000000" width="23.000000" height="23.000000" transform="translate(0.500000 0.500000)" fill="#FFFFFF" fill-opacity="0"/>
	<g clip-path="url(#clip23_6198)">
		<path id="Vector" d="M18.61 5.25C17.47 3.31 15.93 2.25 14.25 2.25L9.75 2.25C8.07 2.25 6.52 3.31 5.38 5.25C4.33 7.07 3.75 9.46 3.75 12C3.75 14.53 4.33 16.92 5.38 18.74C6.52 20.68 8.07 21.75 9.75 21.75L14.25 21.75C15.93 21.75 17.47 20.68 18.61 18.74C19.66 16.92 20.25 14.53 20.25 12C20.25 9.46 19.66 7.07 18.61 5.25ZM18.73 11.25L15.73 11.25C15.67 9.71 15.36 8.19 14.82 6.75L17.69 6.75C18.26 8 18.64 9.56 18.73 11.25ZM16.79 5.25L14.1 5.25C13.79 4.7 13.41 4.2 12.98 3.75L14.25 3.75C15.18 3.75 16.06 4.31 16.79 5.25ZM5.25 12C5.25 7.52 7.31 3.75 9.75 3.75C12.18 3.75 14.25 7.52 14.25 12C14.25 16.47 12.18 20.25 9.75 20.25C7.31 20.25 5.25 16.47 5.25 12ZM14.25 20.25L12.98 20.25C13.41 19.79 13.79 19.29 14.1 18.75L16.8 18.75C16.06 19.68 15.18 20.25 14.25 20.25ZM17.69 17.25L14.82 17.25C15.36 15.8 15.67 14.28 15.73 12.75L18.73 12.75C18.64 14.43 18.26 15.99 17.69 17.25Z" fill="#00F0FF" fill-opacity="1.000000" fill-rule="nonzero"/>
	</g>
</svg>
