<svg width="64.000000" height="64.000000" viewBox="0 0 64 64" fill="none" xmlns="http://www.w3.org/2000/svg" xmlns:xlink="http://www.w3.org/1999/xlink">
	<desc>
			Created with Pixso.
	</desc>
	<defs>
		<clipPath id="clip568_6275">
			<rect id="cbw 1" rx="15.500000" width="63.000000" height="63.000000" transform="translate(0.500000 0.500000)" fill="white" fill-opacity="0"/>
		</clipPath>
	</defs>
	<rect id="cbw 1" rx="15.500000" width="63.000000" height="63.000000" transform="translate(0.500000 0.500000)" fill="#FFFFFF" fill-opacity="0"/>
	<g clip-path="url(#clip568_6275)">
		<path id="Vector" d="M0 0L64 0L64 64L0 64L0 0Z" fill="#0052FF" fill-opacity="1.000000" fill-rule="evenodd"/>
		<path id="Vector" d="M9.5 32C9.5 44.42 19.57 54.5 32 54.5C44.42 54.5 54.5 44.42 54.5 32C54.5 19.57 44.42 9.5 32 9.5C19.57 9.5 9.5 19.57 9.5 32ZM26.25 24.75C25.42 24.75 24.75 25.42 24.75 26.25L24.75 37.75C24.75 38.57 25.42 39.25 26.25 39.25L37.75 39.25C38.57 39.25 39.25 38.57 39.25 37.75L39.25 26.25C39.25 25.42 38.57 24.75 37.75 24.75L26.25 24.75Z" fill="#FFFFFF" fill-opacity="1.000000" fill-rule="evenodd"/>
	</g>
</svg>
