<svg width="64.000000" height="32.000000" viewBox="0 0 64 32" fill="none" xmlns="http://www.w3.org/2000/svg" xmlns:xlink="http://www.w3.org/1999/xlink">
	<desc>
			Created with Pixso.
	</desc>
	<defs>
		<clipPath id="clip16_8125">
			<rect id="Icon" rx="0.000000" width="23.000000" height="23.000000" transform="translate(20.500000 4.500000)" fill="white" fill-opacity="0"/>
		</clipPath>
	</defs>
	<g clip-path="url(#clip16_8125)">
		<path id="Ellipse 12" d="M27.68 25.94Q26.33 25.33 25.19 24.36Q24.06 23.39 23.24 22.16Q22.41 20.9 21.97 19.47Q21.52 17.99 21.52 16.42Q21.52 14.3 22.35 12.36Q23.14 10.49 24.59 9.04Q26.04 7.6 27.92 6.8Q29.87 5.98 32 5.98Q34.12 5.98 36.07 6.8Q37.95 7.6 39.4 9.04Q40.85 10.49 41.64 12.36Q42.47 14.3 42.47 16.42Q42.47 17.97 42.02 19.44Q41.6 20.86 40.78 22.1Q39.98 23.33 38.87 24.3Q37.76 25.27 36.42 25.89L35.79 24.53Q36.93 24 37.89 23.16Q38.84 22.34 39.53 21.29Q40.22 20.22 40.59 19Q40.97 17.75 40.97 16.42Q40.97 14.61 40.26 12.95Q39.58 11.34 38.34 10.1Q37.1 8.87 35.49 8.19Q33.82 7.48 32 7.48Q30.17 7.48 28.5 8.19Q26.89 8.87 25.65 10.1Q24.41 11.34 23.73 12.95Q23.02 14.61 23.02 16.42Q23.02 17.76 23.41 19.03Q23.78 20.26 24.49 21.33Q25.19 22.39 26.16 23.22Q27.14 24.05 28.3 24.57L27.68 25.94ZM28.27 24.58L28.3 24.57C28.68 24.75 28.85 25.18 28.67 25.57C28.5 25.95 28.07 26.11 27.68 25.94L27.67 25.91L28.27 24.58ZM36.43 25.86L36.42 25.89C36.04 26.07 35.6 25.91 35.42 25.52C35.25 25.14 35.41 24.71 35.79 24.53L35.82 24.54L36.43 25.86Z" fill="#798793" fill-opacity="1.000000" fill-rule="evenodd"/>
		<path id="Ellipse 13" d="M28.99 23.14Q28.04 22.71 27.25 22.04Q26.46 21.36 25.89 20.5Q25.31 19.62 25 18.62Q24.69 17.59 24.69 16.5Q24.69 15.02 25.26 13.66Q25.82 12.36 26.83 11.35Q27.84 10.34 29.15 9.79Q30.51 9.22 31.99 9.22Q33.48 9.22 34.84 9.79Q36.15 10.34 37.16 11.35Q38.17 12.36 38.73 13.66Q39.3 15.02 39.3 16.5Q39.3 17.58 38.99 18.6Q38.69 19.59 38.12 20.46Q37.57 21.32 36.79 21.99Q36.01 22.67 35.08 23.1L34.45 21.74Q35.19 21.4 35.81 20.86Q36.42 20.33 36.87 19.64Q37.32 18.95 37.55 18.17Q37.8 17.36 37.8 16.5Q37.8 15.32 37.34 14.25Q36.9 13.21 36.1 12.41Q35.3 11.61 34.25 11.17Q33.18 10.72 31.99 10.72Q30.81 10.72 29.73 11.17Q28.69 11.61 27.89 12.41Q27.08 13.21 26.64 14.25Q26.19 15.32 26.19 16.5Q26.19 17.37 26.44 18.18Q26.68 18.98 27.14 19.67Q27.59 20.36 28.22 20.89Q28.85 21.43 29.6 21.77L28.99 23.14ZM29.58 21.78L29.6 21.77C29.99 21.94 30.15 22.38 29.98 22.76C29.81 23.15 29.37 23.31 28.99 23.14L28.98 23.11L29.58 21.78ZM35.09 23.08L35.08 23.1C34.7 23.28 34.26 23.12 34.09 22.74C33.91 22.36 34.07 21.92 34.45 21.74L34.48 21.75L35.09 23.08Z" fill="#798793" fill-opacity="1.000000" fill-rule="evenodd"/>
		<path id="Ellipse 14" d="M30.28 20.28Q29.74 20.04 29.29 19.65Q28.84 19.27 28.52 18.78Q28.19 18.28 28.02 17.71Q27.84 17.12 27.84 16.5Q27.84 15.66 28.16 14.88Q28.48 14.14 29.06 13.57Q29.63 12.99 30.38 12.68Q31.15 12.35 32 12.35Q32.84 12.35 33.61 12.68Q34.36 12.99 34.93 13.57Q35.51 14.14 35.83 14.88Q36.15 15.66 36.15 16.5Q36.15 17.11 35.98 17.7Q35.81 18.26 35.48 18.76Q35.17 19.25 34.73 19.63Q34.28 20.01 33.75 20.26L33.12 18.9Q33.81 18.58 34.23 17.94Q34.65 17.28 34.65 16.5Q34.65 15.96 34.45 15.47Q34.24 15 33.88 14.63Q33.51 14.26 33.03 14.06Q32.54 13.85 32 13.85Q31.45 13.85 30.96 14.06Q30.48 14.26 30.11 14.63Q29.75 15 29.54 15.47Q29.34 15.96 29.34 16.5Q29.34 17.29 29.77 17.95Q30.2 18.6 30.9 18.91L30.28 20.28ZM30.87 18.92L30.9 18.91C31.28 19.08 31.45 19.52 31.28 19.9C31.1 20.29 30.67 20.45 30.28 20.28L30.27 20.25L30.87 18.92ZM33.76 20.23L33.75 20.26C33.37 20.44 32.93 20.28 32.76 19.9C32.58 19.51 32.74 19.08 33.12 18.9L33.15 18.91L33.76 20.23Z" fill="#798793" fill-opacity="1.000000" fill-rule="evenodd"/>
	</g>
</svg>
