<svg width="24.000000" height="24.000000" viewBox="0 0 24 24" fill="none" xmlns="http://www.w3.org/2000/svg" xmlns:xlink="http://www.w3.org/1999/xlink">
	<desc>
			Created with Pixso.
	</desc>
	<defs>
		<clipPath id="clip23_7276">
			<rect id="hand_vote" rx="0.000000" width="23.000000" height="23.000000" transform="translate(0.500000 0.500000)" fill="white" fill-opacity="0"/>
		</clipPath>
	</defs>
	<rect id="hand_vote" rx="0.000000" width="23.000000" height="23.000000" transform="translate(0.500000 0.500000)" fill="#FFFFFF" fill-opacity="0"/>
	<g clip-path="url(#clip23_7276)">
		<path id="Vector" d="M8 13L8 5.5C8 5.1 8.15 4.72 8.43 4.43C8.72 4.15 9.1 4 9.5 4C9.89 4 10.27 4.15 10.56 4.43C10.84 4.72 11 5.1 11 5.5L11 12" stroke="#00F0FF" stroke-opacity="1.000000" stroke-width="1.500000" stroke-linejoin="round" stroke-linecap="round"/>
		<path id="Vector" d="M11 5.5L11 3.5C11 3.3 11.03 3.1 11.11 2.92C11.18 2.74 11.3 2.57 11.43 2.43C11.57 2.29 11.74 2.18 11.92 2.11C12.1 2.03 12.3 2 12.5 2C12.69 2 12.89 2.03 13.07 2.11C13.25 2.18 13.42 2.29 13.56 2.43C13.7 2.57 13.81 2.74 13.88 2.92C13.96 3.1 14 3.3 14 3.5L14 12" stroke="#00F0FF" stroke-opacity="1.000000" stroke-width="1.500000" stroke-linejoin="round" stroke-linecap="round"/>
		<path id="Vector" d="M14 5.5C14 5.1 14.15 4.72 14.43 4.43C14.72 4.15 15.1 4 15.5 4C15.89 4 16.27 4.15 16.56 4.43C16.84 4.72 17 5.1 17 5.5L17 12" stroke="#00F0FF" stroke-opacity="1.000000" stroke-width="1.500000" stroke-linejoin="round" stroke-linecap="round"/>
		<path id="Vector" d="M16.99 7.5C16.99 7.1 17.15 6.72 17.43 6.43C17.72 6.15 18.1 6 18.49 6C18.89 6 19.27 6.15 19.56 6.43C19.84 6.72 19.99 7.1 19.99 7.5L19.99 16C19.99 17.59 19.36 19.11 18.24 20.24C17.11 21.36 15.59 22 13.99 22L11.99 22L12.2 22C11.21 22 10.23 21.75 9.36 21.28C8.48 20.81 7.74 20.12 7.19 19.29C7.13 19.2 7.06 19.1 6.99 19C6.68 18.52 5.59 16.61 3.71 13.27C3.52 12.93 3.47 12.52 3.57 12.15C3.67 11.77 3.91 11.45 4.24 11.25C4.6 11.03 5.02 10.94 5.43 10.99C5.85 11.04 6.23 11.23 6.52 11.53L7.99 13" stroke="#00F0FF" stroke-opacity="1.000000" stroke-width="1.500000" stroke-linejoin="round" stroke-linecap="round"/>
	</g>
</svg>
