<svg width="24.000000" height="24.000000" viewBox="0 0 24 24" fill="none" xmlns="http://www.w3.org/2000/svg" xmlns:xlink="http://www.w3.org/1999/xlink">
	<desc>
			Created with Pixso.
	</desc>
	<defs>
		<clipPath id="clip13_6746">
			<rect id="leading icon" rx="0.000000" width="23.000000" height="23.000000" transform="translate(0.500000 0.500000)" fill="white" fill-opacity="0"/>
		</clipPath>
	</defs>
	<rect id="leading icon" rx="0.000000" width="23.000000" height="23.000000" transform="translate(0.500000 0.500000)" fill="#FFFFFF" fill-opacity="0"/>
	<g clip-path="url(#clip13_6746)">
		<path id="Vector" d="M20 9C21.1 9 22 9.89 22 11L22 20C22 21.1 21.1 22 20 22L11 22C9.89 22 9 21.1 9 20L9 11C9 9.89 9.89 9 11 9L20 9Z" stroke="#00F0FF" stroke-opacity="1.000000" stroke-width="1.500000" stroke-linejoin="round"/>
		<path id="Vector" d="M5 15L4 15C3.46 15 2.96 14.78 2.58 14.41C2.21 14.03 2 13.53 2 13L2 4C2 3.46 2.21 2.96 2.58 2.58C2.96 2.21 3.46 2 4 2L13 2C13.53 2 14.03 2.21 14.41 2.58C14.78 2.96 15 3.46 15 4L15 5" stroke="#00F0FF" stroke-opacity="1.000000" stroke-width="1.500000" stroke-linejoin="round" stroke-linecap="round"/>
	</g>
</svg>
