<svg width="242.000000" height="84.000000" viewBox="0 0 242 84" fill="none" xmlns="http://www.w3.org/2000/svg" xmlns:xlink="http://www.w3.org/1999/xlink">
	<desc>
			Created with Pixso.
	</desc>
	<defs>
		<clipPath id="clip568_5590">
			<rect id="Frame 4102" rx="0.000000" width="83.000000" height="83.000000" transform="translate(0.500000 0.500000)" fill="white" fill-opacity="0"/>
		</clipPath>
		<clipPath id="clip568_5589">
			<rect id="logo_ligth mode" rx="0.000000" width="241.733337" height="83.733330" transform="translate(0.133333 0.133333)" fill="white" fill-opacity="0"/>
		</clipPath>
		<linearGradient x1="39.159351" y1="1.114928" x2="39.159351" y2="88.590523" id="paint_linear_568_5592_0" gradientUnits="userSpaceOnUse">
			<stop stop-color="#00F0FF"/>
			<stop offset="0.526042" stop-color="#004E53"/>
			<stop offset="1.000000" stop-color="#00F0FF"/>
		</linearGradient>
		<linearGradient x1="70.210922" y1="13.548157" x2="8.269661" y2="75.994324" id="paint_linear_568_5593_0" gradientUnits="userSpaceOnUse">
			<stop stop-color="#00F0FF"/>
			<stop offset="0.526042" stop-color="#004E53"/>
			<stop offset="1.000000" stop-color="#00F0FF"/>
		</linearGradient>
	</defs>
	<g clip-path="url(#clip568_5589)">
		<g clip-path="url(#clip568_5590)">
			<path id="Polygon 1 (Stroke)" d="M65.99 53.53L45.12 17.08C42.47 12.45 35.84 12.45 33.19 17.08L12.32 53.53C9.67 58.15 12.98 63.94 18.28 63.94L60.03 63.94C65.33 63.94 68.64 58.15 65.99 53.53ZM47.5 15.69C43.79 9.21 34.52 9.21 30.81 15.69L9.93 52.14C6.22 58.62 10.86 66.72 18.28 66.72L60.03 66.72C67.45 66.72 72.09 58.62 68.38 52.14L47.5 15.69Z" fill="url(#paint_linear_568_5592_0)" fill-opacity="1.000000" fill-rule="evenodd"/>
			<path id="Polygon 2 (Stroke)" d="M52.23 70.44L63.22 29.09C64.6 23.92 59.91 19.2 54.79 20.58L13.77 31.66C8.65 33.05 6.94 39.5 10.68 43.28L40.71 73.55C44.46 77.33 50.86 75.6 52.23 70.44ZM65.88 29.8C67.8 22.58 61.25 15.96 54.08 17.9L13.06 28.98C5.89 30.92 3.49 39.95 8.74 45.24L38.76 75.51C44.01 80.8 52.97 78.38 54.89 71.16L65.88 29.8Z" fill="url(#paint_linear_568_5593_0)" fill-opacity="1.000000" fill-rule="evenodd"/>
			<path id="Polygon 3 (Stroke)" d="M30.42 72.18L67.2 50.78C71.79 48.11 71.79 41.43 67.2 38.75L30.42 17.35C25.83 14.68 20.09 18.02 20.09 23.36L20.09 66.17C20.09 71.52 25.83 74.86 30.42 72.18ZM68.57 53.18C75 49.44 75 40.09 68.57 36.35L31.8 14.94C25.37 11.2 17.34 15.88 17.34 23.36L17.34 66.17C17.34 73.65 25.37 78.33 31.8 74.59L68.57 53.18Z" fill="#000000" fill-opacity="1.000000" fill-rule="evenodd"/>
		</g>
		<path id="Vector" d="M94.66 57.03L94.66 26.93L105.95 26.93C108.51 26.93 110.7 27.34 112.54 28.18C114.38 28.98 115.79 30.15 116.76 31.7C117.77 33.22 118.27 35.07 118.27 37.25C118.27 39.37 117.77 41.2 116.76 42.75C115.79 44.27 114.38 45.45 112.54 46.28C110.7 47.08 108.51 47.48 105.95 47.48L96.43 47.48L97.85 46.02L97.85 57.03L94.66 57.03ZM115.25 57.03L107.5 46.11L110.95 46.11L118.74 57.03L115.25 57.03ZM97.85 46.28L96.43 44.77L105.86 44.77C108.88 44.77 111.16 44.11 112.71 42.8C114.29 41.48 115.08 39.63 115.08 37.25C115.08 34.84 114.29 32.98 112.71 31.66C111.16 30.34 108.88 29.68 105.86 29.68L96.43 29.68L97.85 28.18L97.85 46.28Z" fill="#000000" fill-opacity="1.000000" fill-rule="nonzero"/>
		<path id="Vector" d="M153.51 57.03L153.51 26.93L156.14 26.93L176.95 53.07L175.57 53.07L175.57 26.93L178.72 26.93L178.72 57.03L176.09 57.03L155.32 30.88L156.7 30.88L156.7 57.03L153.51 57.03Z" fill="#000000" fill-opacity="1.000000" fill-rule="nonzero"/>
		<path id="Vector" d="M196.14 57.03L196.14 29.68L185.54 29.68L185.54 26.93L209.93 26.93L209.93 29.68L199.33 29.68L199.33 57.03L196.14 57.03Z" fill="#000000" fill-opacity="1.000000" fill-rule="nonzero"/>
		<path id="Vector" d="M210.4 57.03L224.19 26.93L227.34 26.93L241.12 57.03L237.76 57.03L225.09 28.78L226.39 28.78L213.72 57.03L210.4 57.03ZM215.83 48.99L216.78 46.41L234.31 46.41L235.26 48.99L215.83 48.99Z" fill="#000000" fill-opacity="1.000000" fill-rule="nonzero"/>
		<path id="Vector" d="M125.65 27.34L145.14 27.34L145.14 30.41L125.65 30.41L125.65 27.34Z" fill="#000000" fill-opacity="1.000000" fill-rule="nonzero"/>
		<path id="Vector" d="M125.65 53.96L145.14 53.96L145.14 57.03L125.65 57.03L125.65 53.96Z" fill="#000000" fill-opacity="1.000000" fill-rule="nonzero"/>
		<path id="Vector" d="M125.65 40.65L145.14 40.65L145.14 43.72L125.65 43.72L125.65 40.65Z" fill="#000000" fill-opacity="1.000000" fill-rule="nonzero"/>
	</g>
</svg>
