<svg width="64.000000" height="64.000000" viewBox="0 0 64 64" fill="none" xmlns="http://www.w3.org/2000/svg" xmlns:xlink="http://www.w3.org/1999/xlink">
	<desc>
			Created with Pixso.
	</desc>
	<defs>
		<clipPath id="clip568_6282">
			<rect id="metamask icon 1" rx="0.000000" width="64.000000" height="64.000000" transform="translate(0.500000 -0.500000)" fill="white" fill-opacity="0"/>
		</clipPath>
		<clipPath id="clip568_6281">
			<rect id="Frame 4018" rx="15.500000" width="63.000000" height="63.000000" transform="translate(0.500000 0.500000)" fill="white" fill-opacity="0"/>
		</clipPath>
	</defs>
	<rect id="Frame 4018" rx="15.500000" width="63.000000" height="63.000000" transform="translate(0.500000 0.500000)" fill="#FFEFD8" fill-opacity="1.000000"/>
	<g clip-path="url(#clip568_6281)">
		<rect id="metamask icon 1" rx="0.000000" width="64.000000" height="64.000000" transform="translate(0.500000 -0.500000)" fill="#FFFFFF" fill-opacity="0"/>
		<g clip-path="url(#clip568_6282)">
			<path id="Vector" d="M55.92 6.24L35.62 21.31L39.37 12.42L55.92 6.24Z" fill="#E2761B" fill-opacity="1.000000" fill-rule="nonzero"/>
			<path id="Vector" d="M35.62 21.31L39.37 12.42L55.92 6.24L35.62 21.31Z" stroke="#E2761B" stroke-opacity="1.000000" stroke-width="1.000000" stroke-linejoin="round"/>
			<path id="Vector" d="M9.05 6.24L29.19 21.46L25.62 12.42L9.05 6.24Z" fill="#E4761B" fill-opacity="1.000000" fill-rule="nonzero"/>
			<path id="Vector" d="M29.19 21.46L25.62 12.42L9.05 6.24L29.19 21.46Z" stroke="#E4761B" stroke-opacity="1.000000" stroke-width="1.000000" stroke-linejoin="round"/>
			<path id="Vector" d="M48.61 41.19L43.21 49.47L54.77 52.65L58.1 41.37L48.61 41.19Z" fill="#E4761B" fill-opacity="1.000000" fill-rule="nonzero"/>
			<path id="Vector" d="M43.21 49.47L54.77 52.65L58.1 41.37L48.61 41.19L43.21 49.47Z" stroke="#E4761B" stroke-opacity="1.000000" stroke-width="1.000000" stroke-linejoin="round"/>
			<path id="Vector" d="M6.91 41.37L10.22 52.65L21.78 49.47L16.38 41.19L6.91 41.37Z" fill="#E4761B" fill-opacity="1.000000" fill-rule="nonzero"/>
			<path id="Vector" d="M10.22 52.65L21.78 49.47L16.38 41.19L6.91 41.37L10.22 52.65Z" stroke="#E4761B" stroke-opacity="1.000000" stroke-width="1.000000" stroke-linejoin="round"/>
			<path id="Vector" d="M21.13 27.19L17.91 32.07L29.39 32.58L28.99 20.23L21.13 27.19Z" fill="#E4761B" fill-opacity="1.000000" fill-rule="nonzero"/>
			<path id="Vector" d="M17.91 32.07L29.39 32.58L28.99 20.23L21.13 27.19L17.91 32.07Z" stroke="#E4761B" stroke-opacity="1.000000" stroke-width="1.000000" stroke-linejoin="round"/>
			<path id="Vector" d="M43.84 27.19L35.88 20.09L35.62 32.58L47.08 32.07L43.84 27.19Z" fill="#E4761B" fill-opacity="1.000000" fill-rule="nonzero"/>
			<path id="Vector" d="M35.88 20.09L35.62 32.58L47.08 32.07L43.84 27.19L35.88 20.09Z" stroke="#E4761B" stroke-opacity="1.000000" stroke-width="1.000000" stroke-linejoin="round"/>
			<path id="Vector" d="M21.78 49.47L28.68 46.1L22.72 41.45L21.78 49.47Z" fill="#E4761B" fill-opacity="1.000000" fill-rule="nonzero"/>
			<path id="Vector" d="M28.68 46.1L22.72 41.45L21.78 49.47L28.68 46.1Z" stroke="#E4761B" stroke-opacity="1.000000" stroke-width="1.000000" stroke-linejoin="round"/>
			<path id="Vector" d="M36.29 46.1L43.21 49.47L42.25 41.45L36.29 46.1Z" fill="#E4761B" fill-opacity="1.000000" fill-rule="nonzero"/>
			<path id="Vector" d="M43.21 49.47L42.25 41.45L36.29 46.1L43.21 49.47Z" stroke="#E4761B" stroke-opacity="1.000000" stroke-width="1.000000" stroke-linejoin="round"/>
			<path id="Vector" d="M43.21 49.47L36.29 46.1L36.84 50.61L36.78 52.51L43.21 49.47Z" fill="#D7C1B3" fill-opacity="1.000000" fill-rule="nonzero"/>
			<path id="Vector" d="M36.29 46.1L36.84 50.61L36.78 52.51L43.21 49.47L36.29 46.1Z" stroke="#D7C1B3" stroke-opacity="1.000000" stroke-width="1.000000" stroke-linejoin="round"/>
			<path id="Vector" d="M21.78 49.47L28.21 52.51L28.17 50.61L28.68 46.1L21.78 49.47Z" fill="#D7C1B3" fill-opacity="1.000000" fill-rule="nonzero"/>
			<path id="Vector" d="M28.21 52.51L28.17 50.61L28.68 46.1L21.78 49.47L28.21 52.51Z" stroke="#D7C1B3" stroke-opacity="1.000000" stroke-width="1.000000" stroke-linejoin="round"/>
			<path id="Vector" d="M28.31 38.47L22.56 36.78L26.62 34.92L28.31 38.47Z" fill="#233447" fill-opacity="1.000000" fill-rule="nonzero"/>
			<path id="Vector" d="M22.56 36.78L26.62 34.92L28.31 38.47L22.56 36.78Z" stroke="#233447" stroke-opacity="1.000000" stroke-width="1.000000" stroke-linejoin="round"/>
			<path id="Vector" d="M36.66 38.47L38.35 34.92L42.43 36.78L36.66 38.47Z" fill="#233447" fill-opacity="1.000000" fill-rule="nonzero"/>
			<path id="Vector" d="M38.35 34.92L42.43 36.78L36.66 38.47L38.35 34.92Z" stroke="#233447" stroke-opacity="1.000000" stroke-width="1.000000" stroke-linejoin="round"/>
			<path id="Vector" d="M21.78 49.47L22.76 41.19L16.38 41.37L21.78 49.47Z" fill="#CD6116" fill-opacity="1.000000" fill-rule="nonzero"/>
			<path id="Vector" d="M22.76 41.19L16.38 41.37L21.78 49.47L22.76 41.19Z" stroke="#CD6116" stroke-opacity="1.000000" stroke-width="1.000000" stroke-linejoin="round"/>
			<path id="Vector" d="M42.23 41.19L43.21 49.47L48.61 41.37L42.23 41.19Z" fill="#CD6116" fill-opacity="1.000000" fill-rule="nonzero"/>
			<path id="Vector" d="M43.21 49.47L48.61 41.37L42.23 41.19L43.21 49.47Z" stroke="#CD6116" stroke-opacity="1.000000" stroke-width="1.000000" stroke-linejoin="round"/>
			<path id="Vector" d="M47.08 32.07L35.62 32.58L36.68 38.47L38.37 34.92L42.45 36.78L47.08 32.07Z" fill="#CD6116" fill-opacity="1.000000" fill-rule="nonzero"/>
			<path id="Vector" d="M35.62 32.58L36.68 38.47L38.37 34.92L42.45 36.78L47.08 32.07L35.62 32.58Z" stroke="#CD6116" stroke-opacity="1.000000" stroke-width="1.000000" stroke-linejoin="round"/>
			<path id="Vector" d="M22.56 36.78L26.64 34.92L28.31 38.47L29.39 32.58L17.91 32.07L22.56 36.78Z" fill="#CD6116" fill-opacity="1.000000" fill-rule="nonzero"/>
			<path id="Vector" d="M26.64 34.92L28.31 38.47L29.39 32.58L17.91 32.07L22.56 36.78L26.64 34.92Z" stroke="#CD6116" stroke-opacity="1.000000" stroke-width="1.000000" stroke-linejoin="round"/>
			<path id="Vector" d="M17.91 32.07L22.72 41.45L22.56 36.78L17.91 32.07Z" fill="#E4751F" fill-opacity="1.000000" fill-rule="nonzero"/>
			<path id="Vector" d="M22.72 41.45L22.56 36.78L17.91 32.07L22.72 41.45Z" stroke="#E4751F" stroke-opacity="1.000000" stroke-width="1.000000" stroke-linejoin="round"/>
			<path id="Vector" d="M42.45 36.78L42.25 41.45L47.08 32.07L42.45 36.78Z" fill="#E4751F" fill-opacity="1.000000" fill-rule="nonzero"/>
			<path id="Vector" d="M42.25 41.45L47.08 32.07L42.45 36.78L42.25 41.45Z" stroke="#E4751F" stroke-opacity="1.000000" stroke-width="1.000000" stroke-linejoin="round"/>
			<path id="Vector" d="M29.39 32.58L28.31 38.47L29.66 45.43L29.97 36.27L29.39 32.58Z" fill="#E4751F" fill-opacity="1.000000" fill-rule="nonzero"/>
			<path id="Vector" d="M28.31 38.47L29.66 45.43L29.97 36.27L29.39 32.58L28.31 38.47Z" stroke="#E4751F" stroke-opacity="1.000000" stroke-width="1.000000" stroke-linejoin="round"/>
			<path id="Vector" d="M35.62 32.58L35.07 36.25L35.31 45.43L36.68 38.47L35.62 32.58Z" fill="#E4751F" fill-opacity="1.000000" fill-rule="nonzero"/>
			<path id="Vector" d="M35.07 36.25L35.31 45.43L36.68 38.47L35.62 32.58L35.07 36.25Z" stroke="#E4751F" stroke-opacity="1.000000" stroke-width="1.000000" stroke-linejoin="round"/>
			<path id="Vector" d="M36.68 38.47L35.31 45.43L36.29 46.1L42.25 41.45L42.45 36.78L36.68 38.47Z" fill="#F6851B" fill-opacity="1.000000" fill-rule="nonzero"/>
			<path id="Vector" d="M35.31 45.43L36.29 46.1L42.25 41.45L42.45 36.78L36.68 38.47L35.31 45.43Z" stroke="#F6851B" stroke-opacity="1.000000" stroke-width="1.000000" stroke-linejoin="round"/>
			<path id="Vector" d="M22.56 36.78L22.72 41.45L28.68 46.1L29.66 45.43L28.31 38.47L22.56 36.78Z" fill="#F6851B" fill-opacity="1.000000" fill-rule="nonzero"/>
			<path id="Vector" d="M22.72 41.45L28.68 46.1L29.66 45.43L28.31 38.47L22.56 36.78L22.72 41.45Z" stroke="#F6851B" stroke-opacity="1.000000" stroke-width="1.000000" stroke-linejoin="round"/>
			<path id="Vector" d="M36.78 52.51L36.84 50.61L36.33 50.16L28.64 50.16L28.17 50.61L28.21 52.51L21.78 49.47L24.03 51.31L28.58 54.47L36.39 54.47L40.96 51.31L43.21 49.47L36.78 52.51Z" fill="#C0AD9E" fill-opacity="1.000000" fill-rule="nonzero"/>
			<path id="Vector" d="M36.84 50.61L36.33 50.16L28.64 50.16L28.17 50.61L28.21 52.51L21.78 49.47L24.03 51.31L28.58 54.47L36.39 54.47L40.96 51.31L43.21 49.47L36.78 52.51L36.84 50.61Z" stroke="#C0AD9E" stroke-opacity="1.000000" stroke-width="1.000000" stroke-linejoin="round"/>
			<path id="Vector" d="M36.29 46.1L35.31 45.43L29.66 45.43L28.68 46.1L28.17 50.61L28.64 50.16L36.33 50.16L36.84 50.61L36.29 46.1Z" fill="#161616" fill-opacity="1.000000" fill-rule="nonzero"/>
			<path id="Vector" d="M35.31 45.43L29.66 45.43L28.68 46.1L28.17 50.61L28.64 50.16L36.33 50.16L36.84 50.61L36.29 46.1L35.31 45.43Z" stroke="#161616" stroke-opacity="1.000000" stroke-width="1.000000" stroke-linejoin="round"/>
			<path id="Vector" d="M56.77 22.29L58.51 13.97L55.92 6.24L36.29 20.8L43.84 27.19L54.51 30.31L56.88 27.56L55.86 26.82L57.49 25.33L56.22 24.35L57.85 23.11L56.77 22.29Z" fill="#763D16" fill-opacity="1.000000" fill-rule="nonzero"/>
			<path id="Vector" d="M58.51 13.97L55.92 6.24L36.29 20.8L43.84 27.19L54.51 30.31L56.88 27.56L55.86 26.82L57.49 25.33L56.22 24.35L57.85 23.11L56.77 22.29L58.51 13.97Z" stroke="#763D16" stroke-opacity="1.000000" stroke-width="1.000000" stroke-linejoin="round"/>
			<path id="Vector" d="M6.48 13.97L8.22 22.29L7.12 23.11L8.75 24.35L7.5 25.33L9.14 26.82L8.11 27.56L10.46 30.31L21.13 27.19L28.68 20.8L9.05 6.24L6.48 13.97Z" fill="#763D16" fill-opacity="1.000000" fill-rule="nonzero"/>
			<path id="Vector" d="M8.22 22.29L7.12 23.11L8.75 24.35L7.5 25.33L9.14 26.82L8.11 27.56L10.46 30.31L21.13 27.19L28.68 20.8L9.05 6.24L6.48 13.97L8.22 22.29Z" stroke="#763D16" stroke-opacity="1.000000" stroke-width="1.000000" stroke-linejoin="round"/>
			<path id="Vector" d="M54.51 30.31L43.84 27.19L47.08 32.07L42.25 41.45L48.61 41.37L58.1 41.37L54.51 30.31Z" fill="#F6851B" fill-opacity="1.000000" fill-rule="nonzero"/>
			<path id="Vector" d="M43.84 27.19L47.08 32.07L42.25 41.45L48.61 41.37L58.1 41.37L54.51 30.31L43.84 27.19Z" stroke="#F6851B" stroke-opacity="1.000000" stroke-width="1.000000" stroke-linejoin="round"/>
			<path id="Vector" d="M21.13 27.19L10.46 30.31L6.91 41.37L16.38 41.37L22.72 41.45L17.91 32.07L21.13 27.19Z" fill="#F6851B" fill-opacity="1.000000" fill-rule="nonzero"/>
			<path id="Vector" d="M10.46 30.31L6.91 41.37L16.38 41.37L22.72 41.45L17.91 32.07L21.13 27.19L10.46 30.31Z" stroke="#F6851B" stroke-opacity="1.000000" stroke-width="1.000000" stroke-linejoin="round"/>
			<path id="Vector" d="M35.62 32.58L36.29 20.8L39.39 12.42L25.62 12.42L28.68 20.8L29.39 32.58L29.64 36.29L29.66 45.43L35.31 45.43L35.35 36.29L35.62 32.58Z" fill="#F6851B" fill-opacity="1.000000" fill-rule="nonzero"/>
			<path id="Vector" d="M36.29 20.8L39.39 12.42L25.62 12.42L28.68 20.8L29.39 32.58L29.64 36.29L29.66 45.43L35.31 45.43L35.35 36.29L35.62 32.58L36.29 20.8Z" stroke="#F6851B" stroke-opacity="1.000000" stroke-width="1.000000" stroke-linejoin="round"/>
		</g>
	</g>
</svg>
