<svg width="72.000000" height="72.000000" viewBox="0 0 72 72" fill="none" xmlns="http://www.w3.org/2000/svg" xmlns:xlink="http://www.w3.org/1999/xlink">
	<desc>
			Created with Pixso.
	</desc>
	<defs>
		<clipPath id="clip13_10143">
			<rect id="coin_stake" rx="0.000000" width="23.000000" height="23.000000" transform="translate(24.500000 24.500000)" fill="white" fill-opacity="0"/>
		</clipPath>
	</defs>
	<rect id="Round btn" rx="36.000000" width="72.000000" height="72.000000" fill="#00F0FF" fill-opacity="1.000000"/>
	<rect id="coin_stake" rx="0.000000" width="23.000000" height="23.000000" transform="translate(24.500000 24.500000)" fill="#FFFFFF" fill-opacity="0"/>
	<g clip-path="url(#clip13_10143)">
		<path id="Vector" d="M42.61 29.25C41.47 27.31 39.93 26.25 38.25 26.25L33.75 26.25C32.06 26.25 30.52 27.31 29.38 29.25C28.33 31.07 27.75 33.46 27.75 36C27.75 38.53 28.33 40.92 29.38 42.74C30.52 44.68 32.06 45.75 33.75 45.75L38.25 45.75C39.93 45.75 41.47 44.68 42.61 42.74C43.66 40.92 44.25 38.53 44.25 36C44.25 33.46 43.66 31.07 42.61 29.25ZM42.73 35.25L39.73 35.25C39.67 33.71 39.36 32.19 38.82 30.75L41.69 30.75C42.26 32 42.64 33.56 42.73 35.25ZM40.79 29.25L38.1 29.25C37.79 28.7 37.41 28.2 36.98 27.75L38.25 27.75C39.18 27.75 40.06 28.31 40.79 29.25ZM29.25 36C29.25 31.52 31.31 27.75 33.75 27.75C36.18 27.75 38.25 31.52 38.25 36C38.25 40.47 36.18 44.25 33.75 44.25C31.31 44.25 29.25 40.47 29.25 36ZM38.25 44.25L36.98 44.25C37.41 43.79 37.79 43.29 38.1 42.75L40.8 42.75C40.06 43.68 39.18 44.25 38.25 44.25ZM41.69 41.25L38.82 41.25C39.36 39.8 39.67 38.28 39.73 36.75L42.73 36.75C42.64 38.43 42.26 39.99 41.69 41.25Z" fill="#1E2932" fill-opacity="1.000000" fill-rule="nonzero"/>
	</g>
</svg>
