<svg width="72.000000" height="72.000000" viewBox="0 0 72 72" fill="none" xmlns="http://www.w3.org/2000/svg" xmlns:xlink="http://www.w3.org/1999/xlink">
	<desc>
			Created with Pixso.
	</desc>
	<defs>
		<clipPath id="clip13_10147">
			<rect id="coin_swap" rx="0.000000" width="23.000000" height="23.000000" transform="translate(24.500000 24.500000)" fill="white" fill-opacity="0"/>
		</clipPath>
	</defs>
	<rect id="Round btn" rx="36.000000" width="72.000000" height="72.000000" fill="#00F0FF" fill-opacity="1.000000"/>
	<rect id="coin_swap" rx="0.000000" width="23.000000" height="23.000000" transform="translate(24.500000 24.500000)" fill="#FFFFFF" fill-opacity="0"/>
	<g clip-path="url(#clip13_10147)">
		<ellipse id="Ellipse 18" rx="3.353610" ry="6.089350" transform="matrix(0.707107 0.707107 -0.707107 0.707107 38.3278 39.2002)" stroke="#1E2932" stroke-opacity="1.000000" stroke-width="1.500000"/>
		<path id="Ellipse 19" d="M43.13 34.32L44.06 35.25L45.04 36.24Q45.78 36.98 46.07 38Q46.36 38.99 46.18 40.12Q46 41.24 45.38 42.36Q44.74 43.51 43.69 44.56Q42.64 45.61 41.57 46.28Q40.48 46.95 39.45 47.19Q38.36 47.44 37.41 47.2Q36.41 46.95 35.67 46.21L34.49 45.03L33.54 44.08L34.61 43.02L35.55 43.97L36.73 45.15Q37.65 46.07 39.11 45.73Q39.9 45.54 40.77 45Q41.7 44.43 42.63 43.5Q43.53 42.6 44.07 41.63Q44.56 40.74 44.7 39.88Q44.83 39.09 44.63 38.41Q44.45 37.76 43.98 37.3L43 36.32L42.06 35.38L43.13 34.32Z" fill="#1E2932" fill-opacity="1.000000" fill-rule="evenodd"/>
		<path id="Vector" d="M28.14 39.2C26.68 37.91 25.75 36.13 25.51 34.2C25.26 32.27 25.74 30.32 26.83 28.71C27.92 27.1 29.57 25.94 31.45 25.46C33.34 24.97 35.33 25.19 37.07 26.07C38.8 26.96 40.16 28.44 40.88 30.25M41.38 25.25L41.38 30.25L36.38 30.25" stroke="#1E2932" stroke-opacity="1.000000" stroke-width="1.500000" stroke-linejoin="round" stroke-linecap="round"/>
	</g>
</svg>
