<svg width="64.000000" height="64.000000" viewBox="0 0 64 64" fill="none" xmlns="http://www.w3.org/2000/svg" xmlns:xlink="http://www.w3.org/1999/xlink">
	<desc>
			Created with Pixso.
	</desc>
	<defs>
		<clipPath id="clip568_6321">
			<rect id="cbw 1" rx="15.500000" width="63.000000" height="63.000000" transform="translate(0.500000 0.500000)" fill="white" fill-opacity="0"/>
		</clipPath>
		<linearGradient x1="31.212643" y1="61.560211" x2="48.485271" y2="-1.042398" id="paint_linear_568_6324_0" gradientUnits="userSpaceOnUse">
			<stop offset="0.260000" stop-color="#48FF91"/>
			<stop offset="0.660000" stop-color="#0094FF"/>
			<stop offset="0.800000" stop-color="#0038FF"/>
			<stop offset="0.890000" stop-color="#0500FF"/>
		</linearGradient>
		<linearGradient x1="47.396690" y1="5.312290" x2="31.457716" y2="55.572964" id="paint_linear_568_6325_0" gradientUnits="userSpaceOnUse">
			<stop offset="0.020000" stop-color="#0000FF"/>
			<stop offset="0.080000" stop-color="#0094FF"/>
			<stop offset="0.160000" stop-color="#48FF91"/>
			<stop offset="0.420000" stop-color="#0094FF"/>
			<stop offset="0.680000" stop-color="#0038FF"/>
			<stop offset="0.900000" stop-color="#0500FF"/>
		</linearGradient>
	</defs>
	<rect id="cbw 1" rx="15.500000" width="63.000000" height="63.000000" transform="translate(0.500000 0.500000)" fill="#FFFFFF" fill-opacity="1.000000"/>
	<g clip-path="url(#clip568_6321)">
		<path id="Vector" d="M11 14.87L32.1 8L32.1 55.57C17.02 49.23 11 37.07 11 30.2L11 14.87Z" fill="#0500FF" fill-opacity="1.000000" fill-rule="nonzero"/>
		<path id="Vector" d="M53.2 14.87L32.1 8L32.1 55.57C47.17 49.23 53.2 37.07 53.2 30.2L53.2 14.87Z" fill="url(#paint_linear_568_6324_0)" fill-opacity="1.000000" fill-rule="nonzero"/>
		<path id="Vector" d="M53.2 14.87L32.1 8L32.1 55.57C47.17 49.23 53.2 37.07 53.2 30.2L53.2 14.87Z" fill="url(#paint_linear_568_6325_0)" fill-opacity="1.000000" fill-rule="nonzero"/>
	</g>
</svg>
