<svg width="64.000000" height="32.000000" viewBox="0 0 64 32" fill="none" xmlns="http://www.w3.org/2000/svg" xmlns:xlink="http://www.w3.org/1999/xlink">
	<desc>
			Created with Pixso.
	</desc>
	<defs>
		<clipPath id="clip16_8116">
			<rect id="Icon" rx="0.000000" width="23.000000" height="23.000000" transform="translate(20.500000 4.500000)" fill="white" fill-opacity="0"/>
		</clipPath>
	</defs>
	<g clip-path="url(#clip16_8116)">
		<path id="Vector" d="M40.25 10L25.25 10C25.05 10 24.86 9.92 24.71 9.78C24.57 9.63 24.5 9.44 24.5 9.25C24.5 9.05 24.57 8.86 24.71 8.71C24.86 8.57 25.05 8.5 25.25 8.5L38 8.5C38.19 8.5 38.38 8.42 38.53 8.28C38.67 8.13 38.75 7.94 38.75 7.75C38.75 7.55 38.67 7.36 38.53 7.21C38.38 7.07 38.19 7 38 7L25.25 7C24.65 7 24.08 7.23 23.65 7.65C23.23 8.08 23 8.65 23 9.25L23 21.25C23 21.84 23.23 22.41 23.65 22.84C24.08 23.26 24.65 23.5 25.25 23.5L40.25 23.5C40.64 23.5 41.02 23.34 41.31 23.06C41.59 22.77 41.75 22.39 41.75 22L41.75 11.5C41.75 11.1 41.59 10.72 41.31 10.43C41.02 10.15 40.64 10 40.25 10ZM40.25 22L25.25 22C25.05 22 24.86 21.92 24.71 21.78C24.57 21.63 24.5 21.44 24.5 21.25L24.5 11.37C24.74 11.45 24.99 11.5 25.25 11.5L40.25 11.5L40.25 22ZM35.75 16.37C35.75 16.15 35.81 15.93 35.93 15.75C36.06 15.56 36.23 15.42 36.44 15.33C36.65 15.25 36.87 15.22 37.09 15.27C37.31 15.31 37.51 15.42 37.67 15.57C37.82 15.73 37.93 15.93 37.97 16.15C38.02 16.37 38 16.59 37.91 16.8C37.82 17.01 37.68 17.18 37.5 17.31C37.31 17.43 37.09 17.5 36.87 17.5C36.57 17.5 36.29 17.38 36.07 17.17C35.86 16.95 35.75 16.67 35.75 16.37Z" fill="#00F0FF" fill-opacity="1.000000" fill-rule="nonzero"/>
	</g>
</svg>
